<svg xmlns="http://www.w3.org/2000/svg" xmlns:xlink="http://www.w3.org/1999/xlink" viewBox="0 0 139.71 160.12"><defs><style>.cls-1{fill:none;}.cls-2,.cls-3{fill:#3a3a3a;}.cls-2{fill-rule:evenodd;}.cls-4{fill:#ffc200;}.cls-5{clip-path:url(#clip-path);}.cls-6{opacity:0.3;}.cls-7{clip-path:url(#clip-path-2);}.cls-8{opacity:0.4;}.cls-9{clip-path:url(#clip-path-3);}.cls-10{fill:#fff;opacity:0.32;}</style><clipPath id="clip-path"><rect class="cls-1" x="71.86" y="82.89" width="5.04" height="13.52" rx="0.6" ry="0.6"/></clipPath><clipPath id="clip-path-2"><rect class="cls-1" x="62.63" y="85.09" width="5.04" height="9.8" rx="0.6" ry="0.6"/></clipPath><clipPath id="clip-path-3"><path class="cls-1" d="M73,80.82A1,1,0,0,0,71.71,80l-9.52,2.6a1,1,0,0,0-.7,1.27L65.8,97.35a1,1,0,0,0,1,.7h7.82a1,1,0,0,0,1-1.16Z"/></clipPath></defs><title>symbol colorful</title><g id="Шар_2" data-name="Шар 2"><g id="Export"><g id="symbol_colorful" data-name="symbol colorful"><path class="cls-2" d="M46.22,151.5a1,1,0,0,1,.57-1.72,1.26,1.26,0,0,1,.28,0h0a77.37,77.37,0,0,0,21.34,3.45c11.43,0,25.26-6.31,26.55-7.2s2-1.3.9-2.39-2.49-2.49-2.69-2.63,3.43-1.45,6.37,2.28-.3,8.45-.75,8.7S98,149.7,97.9,149s-.2-1.64-1.15-.65c-2,2.11-12.49,11.82-25.34,11.82-11.88,0-24-8-24.9-8.44a2.2,2.2,0,0,1-.28-.18"/><path class="cls-3" d="M69.85,133.64c-2.57,0-8.73-2.14-8.73-2.14a3.69,3.69,0,0,1-2.82-3.59,4.15,4.15,0,0,1,.08-.79h0v.07a.35.35,0,0,0,.34.35,38.27,38.27,0,0,0,11.13,1.85A38.3,38.3,0,0,0,81,127.54a.35.35,0,0,0,.34-.35.17.17,0,0,0,0-.07h0a3.48,3.48,0,0,1,.09.79,3.7,3.7,0,0,1-2.83,3.59S72.42,133.64,69.85,133.64Z"/><path class="cls-3" d="M135.52,83c-.26-.26-.53-.49-.8-.72V39.77A40.22,40.22,0,0,0,100.51,0h-.12a.65.65,0,0,0-.5,1.06h0a8.83,8.83,0,0,1-2.27,14h0c-8.12,4.31-33.12,6.19-53,6.19a18.61,18.61,0,0,0-18.1,15.93h-.2A21.3,21.3,0,0,0,5,58.48V82.32c-.27.23-.54.46-.8.72C1.37,85.85,0,89.79,0,95.1a29.89,29.89,0,0,0,59.76,1.07l2.08-1.26a16.79,16.79,0,0,1,8-1.82,16.92,16.92,0,0,1,8,1.79L80,96.24a29.89,29.89,0,0,0,59.76-1.14C139.71,89.79,138.34,85.85,135.52,83ZM29.89,119A23.92,23.92,0,0,1,6,95.1c0-3.63.79-6.19,2.43-7.82,3.18-3.17,9.92-3.38,17.87-3.38h5.42c8.7,0,16.22,0,19.64,3.38,1.63,1.63,2.42,4.19,2.42,7.82A23.91,23.91,0,0,1,29.89,119Zm40-33.9a25.23,25.23,0,0,0-11.32,2.52A12.93,12.93,0,0,0,55.59,83c-5.17-5.17-13.83-5.15-23.88-5.14H28.07a108.33,108.33,0,0,0-12.43.44V74.18a.65.65,0,0,1,.62-.65h0A17.85,17.85,0,0,0,31.11,49h0a.6.6,0,0,1-.06-.27.66.66,0,0,1,.65-.65.61.61,0,0,1,.36.11C43.14,55.42,57.53,59.8,73.25,59.8c16.29,0,31.15-4.71,42.39-12.45h0a9.47,9.47,0,0,1,9.47,9.47V78.49a94.83,94.83,0,0,0-13.48-.59H108c-10,0-18.7,0-23.88,5.14a13.07,13.07,0,0,0-2.94,4.57A25.15,25.15,0,0,0,69.85,85.09Zm40,33.9A23.92,23.92,0,0,1,85.92,95.1c0-3.63.8-6.19,2.43-7.82,3.18-3.17,9.93-3.38,17.87-3.38h5.43c8.71,0,16.21,0,19.63,3.38,1.63,1.63,2.43,4.19,2.43,7.82A23.92,23.92,0,0,1,109.81,119Z"/><rect class="cls-4" x="71.86" y="82.89" width="5.04" height="13.52" rx="0.6" ry="0.6"/><rect class="cls-4" x="62.63" y="85.09" width="5.04" height="9.8" rx="0.6" ry="0.6"/><g class="cls-5"><path class="cls-6" d="M63.22,83.59,72.74,81A1,1,0,0,1,74,81.8l2.6,16.07a1,1,0,0,1-1,1.16H67.79a1,1,0,0,1-1-.7L62.53,84.86A1,1,0,0,1,63.22,83.59Z"/></g><g class="cls-7"><path class="cls-8" d="M72.89,82.27a1,1,0,0,0-1.26-.8l-9.53,2.6a1,1,0,0,0-.69,1.27l4.31,13.47a1,1,0,0,0,1,.7h7.81a1,1,0,0,0,1-1.17Z"/></g><path class="cls-4" d="M73,80.82A1,1,0,0,0,71.71,80l-9.52,2.6a1,1,0,0,0-.7,1.27L65.8,97.35a1,1,0,0,0,1,.7h7.82a1,1,0,0,0,1-1.16Z"/><g class="cls-9"><path class="cls-10" d="M72.84,91.14a.6.6,0,0,0-.75-.48l-5.77,1.58a.58.58,0,0,0-.41.75l2.61,8.16a.58.58,0,0,0,.56.41h4.75a.59.59,0,0,0,.58-.69Z"/></g></g></g></g></svg>